<svg id="Layer_1" data-name="Layer 1" xmlns="http://www.w3.org/2000/svg" viewBox="0 0 479 117"><defs><style>.cls-1{fill:#2d5bec;}</style></defs><title>carhub</title><path class="cls-1" d="M99.15,97a23.47,23.47,0,0,0,3.39-.3Z"/><path class="cls-1" d="M118,83.76,116.88,85c-5.55,6.16-11.43,9-18.52,9-15.25,0-24.73-12.7-24.73-33.14,0-19.88,9.87-32.72,25.15-32.72,6.1,0,11.37,2.45,16.11,7.51l1.16,1.24,7.84-9.32-.89-1a33.55,33.55,0,0,0-8.76-6.9l-.07,0A33.93,33.93,0,0,0,109,17.42a44.83,44.83,0,0,0-7.09-1.56A104.15,104.15,0,0,0,87,15l-20.31.07c-.48,0-1,0-1.45,0H43.72a5,5,0,0,0-5,3.29c-.83,2.9,1.68,4.64,4.86,4.64h5.09a.21.21,0,0,0,0,.06c2.47.35,4.28,2.52,3.51,4.89a4.4,4.4,0,0,1-4.28,2.74H30.14a5,5,0,0,0-5,3.29c-.83,2.89,1.69,5.51,4.86,5.51h26.6a4.86,4.86,0,0,1,4.82,3.21c.77,2.78-1.65,5.29-4.7,5.29H34.24a4.11,4.11,0,0,0-4.08,2.71c-.65,2.35,1.4,4.48,4,4.48H47.39a4.86,4.86,0,0,1,4.82,3.2c.77,2.78-1.65,5.29-4.7,5.29H42.56a5,5,0,0,0-5,3.29c-.82,2.89,1.69,5.51,4.86,5.51h13a4.39,4.39,0,0,1,4.36,2.9c.7,2.52-1.49,4.79-4.25,4.79H42.46c-2.76,0-5,2-5,4.4a4.12,4.12,0,0,0,1.48,3.11A5.33,5.33,0,0,0,42.46,89h3.37c2,0,4.17,1,4.36,3.9a4.22,4.22,0,0,1-4.26,4.79H31.68a4.66,4.66,0,0,0-5,4.29,4.74,4.74,0,0,0,4.86,5.51H45s23,.67,29,.5c22.35-.64,32.06-1.28,38.5-4.52A36.64,36.64,0,0,0,125,93.76l.85-1ZM99.15,97l3.39-.3A23.47,23.47,0,0,1,99.15,97Z"/><path class="cls-1" d="M101.91,15.86A44.83,44.83,0,0,1,109,17.42,32.43,32.43,0,0,0,101.91,15.86ZM99.15,97a23.47,23.47,0,0,0,3.39-.3Z"/><path class="cls-1" d="M102.54,96.71a23.47,23.47,0,0,1-3.39.3Z"/><path class="cls-1" d="M114.17,19.69A33.93,33.93,0,0,0,109,17.42,22.77,22.77,0,0,1,114.17,19.69Z"/><rect class="cls-1" x="23.06" y="15.22" width="10.6" height="8.61" rx="4.3"/><rect class="cls-1" x="17.28" y="48.22" width="7.99" height="7.01" rx="3.5"/><rect class="cls-1" x="13.74" y="98.97" width="7.99" height="7.01" rx="3.5"/><rect class="cls-1" x="19.58" y="80.66" width="9.02" height="7.91" rx="3.95" transform="translate(48.17 169.22) rotate(180)"/><path class="cls-1" d="M194.9,95c-1.29-.63-2.35-1.64-2.35-7.57V60.63c0-15.72-10.17-24.38-28.64-24.38-5.73,0-16.62.86-25.21,6.59l-2.12,1.41,5.48,12.12,2.8-1.43a39.91,39.91,0,0,1,17.81-4.32c12.72,0,14.35,6.47,14.35,12.1v1.63A85.48,85.48,0,0,0,162.75,63C143.48,63,132,71.72,132,86.31c0,12.93,10.11,21.63,25.15,21.63,8.37,0,16.41-2.9,21.77-7.57,2.47,5.18,8,7.57,13.51,7.57H195L196.89,96ZM177,80.69c0,7.39-10.15,13.11-18.88,13.11-3.21,0-10.67-.77-10.67-8,0-6,5.48-9,16.28-9A76.87,76.87,0,0,1,177,78.1Z"/><path class="cls-1" d="M317.46,65.43v41.23H301.82v-39c0-7.59-2.43-16.63-14-16.63-10.22,0-17.64,6.85-17.64,16.28v39.33H254.5V9.27l15.64-3.2V42.55a31.16,31.16,0,0,1,19.54-6.3C306.82,36.25,317.46,47.44,317.46,65.43Z"/><path class="cls-1" d="M247.94,38.06,245.48,53l-3.26-1a19.51,19.51,0,0,0-5.62-.85c-13.54,0-15,14.78-15,21.13v34.33H206V37.53h13.91l.56,5.26c4.3-4.39,9.79-6.54,16.61-6.54a31.69,31.69,0,0,1,8.32,1.08Z"/><path class="cls-1" d="M390.43,37.53v69.13H376.52l-.59-5.68c-5.23,4.57-11.95,7-19.75,7-16.83,0-27.28-11.21-27.28-29.26V37.53h15.68v40c0,10.34,4.54,15.59,13.5,15.59,10.12,0,16.67-6.67,16.67-17V37.53Z"/><path class="cls-1" d="M438.17,36.25a30.26,30.26,0,0,0-19.08,6.38V6.07l-15.68,3.2v97.39h13.93l.64-6.37a30.28,30.28,0,0,0,20.5,7.65c15.84,0,32.9-11.11,32.9-35.5C471.38,51.47,457.41,36.25,438.17,36.25Zm17.45,36c0,12.76-7.23,21-18.42,21-11,0-18.45-8.61-18.45-21.44,0-12.47,7.38-20.85,18.37-20.85S455.62,59.52,455.62,72.25Z"/></svg>